<?xml version="1.0" standalone="no"?>
<!DOCTYPE svg PUBLIC "-//W3C//DTD SVG 20010904//EN"
 "http://www.w3.org/TR/2001/REC-SVG-20010904/DTD/svg10.dtd">
<svg version="1.0" xmlns="http://www.w3.org/2000/svg"
 width="219.000000pt" height="219.000000pt" viewBox="0 0 219.000000 219.000000"
 preserveAspectRatio="xMidYMid meet">
<metadata>
Created by potrace 1.14, written by Peter Selinger 2001-2017
</metadata>
<g transform="translate(0.000000,219.000000) scale(0.100000,-0.100000)"
fill="#000000" stroke="none">
<path d="M904 2175 c-400 -72 -726 -351 -853 -731 -17 -51 -31 -99 -31 -108 0
-9 25 21 56 66 120 176 280 344 362 380 94 42 181 -6 125 -68 -10 -11 -34 -31
-54 -46 -42 -31 -99 -86 -148 -144 -45 -52 -190 -273 -233 -354 -60 -113 -83
-102 195 -95 212 6 295 10 318 14 4 0 28 56 54 124 25 67 51 131 55 142 5 11
30 69 56 130 53 126 105 232 140 285 56 84 160 77 139 -8 -3 -15 -35 -94 -70
-177 -64 -151 -185 -468 -185 -485 0 -5 47 -7 113 -5 131 5 160 -4 165 -51 4
-42 -12 -80 -45 -101 -26 -17 -73 -21 -264 -23 l-36 0 -47 -157 c-25 -87 -55
-203 -65 -258 -30 -158 -42 -175 -116 -175 -52 0 -85 38 -85 99 0 56 34 191
90 356 22 65 40 122 40 126 0 3 -51 5 -112 3 -62 -1 -189 -4 -282 -6 -108 -1
-170 -6 -172 -13 -9 -21 48 -192 93 -284 305 -618 1095 -802 1646 -383 54 41
109 93 104 98 -5 5 -186 34 -247 39 -36 4 -71 8 -79 11 -8 3 -107 7 -220 10
-167 3 -216 1 -261 -11 -93 -27 -129 -27 -156 0 -20 21 -22 27 -13 61 38 137
234 300 584 484 293 154 419 253 480 377 89 182 -40 368 -255 365 -41 -1 -84
-3 -95 -5 -111 -25 -175 -60 -262 -146 -61 -60 -98 -67 -138 -26 -27 26 -32
65 -15 110 26 68 163 161 305 205 100 31 307 37 385 10 30 -10 56 -18 57 -16
7 7 -122 129 -188 179 -232 174 -554 252 -835 202z"/>
<path d="M2136 1264 c-30 -90 -102 -183 -206 -263 -100 -77 -183 -127 -378
-227 -89 -46 -181 -96 -205 -111 -58 -38 -141 -103 -130 -103 52 0 325 -11
348 -14 17 -3 62 -7 100 -11 126 -10 282 -30 317 -41 33 -10 119 162 164 326
26 97 28 119 29 280 0 200 -11 247 -39 164z"/>
</g>
</svg>
